<svg width="328" height="64" viewBox="0 0 328 64" fill="none" xmlns="http://www.w3.org/2000/svg">
<g filter="url(#filter0_d_62_204)">
<rect x="1" width="320" height="56" rx="28" fill="white" shape-rendering="crispEdges"/>
<rect x="29.6626" y="14.6626" width="26.6751" height="26.6751" rx="8" fill="white"/>
<path d="M43 16.5226C46.7382 16.5226 47.181 16.5369 48.6574 16.6042C50.0224 16.6665 50.7636 16.8945 51.257 17.0863C51.8651 17.3107 52.4151 17.6685 52.8667 18.1335C53.3317 18.5851 53.6895 19.1352 53.914 19.7433C54.1057 20.2366 54.3338 20.9779 54.396 22.3429C54.4634 23.8192 54.4776 24.2619 54.4776 28.0002C54.4776 31.7385 54.4634 32.1811 54.396 33.6575C54.3337 35.0225 54.1056 35.7638 53.914 36.2571C53.6811 36.8609 53.3243 37.4093 52.8667 37.8669C52.4091 38.3245 51.8608 38.6812 51.257 38.9141C50.7636 39.1059 50.0224 39.3339 48.6574 39.3962C47.1813 39.4635 46.7386 39.4778 43 39.4778C39.2615 39.4778 38.8189 39.4635 37.3427 39.3962C35.9777 39.3339 35.2365 39.1058 34.7431 38.9141C34.135 38.6897 33.5849 38.3318 33.1334 37.8669C32.6684 37.4153 32.3105 36.8652 32.0861 36.2571C31.8944 35.7638 31.6663 35.0225 31.604 33.6575C31.5367 32.1813 31.5224 31.7385 31.5224 28.0002C31.5224 24.2619 31.5367 23.8193 31.604 22.3429C31.6663 20.9779 31.8944 20.2366 32.0861 19.7433C32.3105 19.1351 32.6684 18.5851 33.1335 18.1335C33.5851 17.6685 34.1351 17.3106 34.7432 17.0862C35.2365 16.8945 35.9778 16.6664 37.3428 16.6042C38.8191 16.5368 39.2618 16.5225 43.0001 16.5225M43.0001 14C39.1979 14 38.721 14.0161 37.228 14.0842C35.7378 14.1523 34.7201 14.3889 33.8296 14.735C32.8955 15.0865 32.0493 15.6376 31.35 16.3498C30.6376 17.049 30.0864 17.8953 29.7347 18.8295C29.3889 19.72 29.1523 20.7377 29.0845 22.2279C29.0161 23.7209 29 24.1978 29 28C29 31.8022 29.0161 32.2792 29.0845 33.7722C29.1525 35.2624 29.3892 36.28 29.7353 37.1705C30.0868 38.1047 30.6379 38.9509 31.3501 39.6502C32.0494 40.3624 32.8956 40.9135 33.8297 41.265C34.7203 41.6111 35.738 41.8477 37.2281 41.9158C38.7213 41.9839 39.1981 42 43.0002 42C46.8024 42 47.2794 41.9839 48.7724 41.9158C50.2626 41.8477 51.2803 41.6111 52.1708 41.265C53.1008 40.9053 53.9454 40.3553 54.6504 39.6502C55.3555 38.9451 55.9055 38.1005 56.2652 37.1705C56.6113 36.28 56.8479 35.2623 56.916 33.7722C56.9841 32.2789 57.0002 31.8022 57.0002 28C57.0002 24.1979 56.9841 23.7209 56.916 22.2279C56.8479 20.7377 56.6113 19.72 56.2652 18.8295C55.9137 17.8954 55.3626 17.0491 54.6504 16.3499C53.9511 15.6375 53.1048 15.0863 52.1706 14.7347C51.28 14.3889 50.2624 14.1523 48.7722 14.0845C47.2792 14.0161 46.8022 14 43 14H43.0001Z" fill="#262626"/>
<path d="M43 20.8106C41.5781 20.8106 40.1882 21.2322 39.0059 22.0222C37.8236 22.8122 36.9022 23.935 36.358 25.2486C35.8139 26.5623 35.6715 28.0078 35.9489 29.4024C36.2263 30.7969 36.911 32.0779 37.9165 33.0834C38.9219 34.0888 40.2029 34.7735 41.5975 35.0509C42.992 35.3283 44.4375 35.1859 45.7512 34.6418C47.0649 34.0977 48.1877 33.1762 48.9776 31.9939C49.7676 30.8117 50.1892 29.4217 50.1892 27.9998C50.1892 26.0931 49.4318 24.2645 48.0835 22.9163C46.7353 21.568 44.9067 20.8106 43 20.8106ZM43 32.6665C42.077 32.6664 41.1748 32.3927 40.4074 31.88C39.64 31.3672 39.0418 30.6383 38.6886 29.7856C38.3354 28.9329 38.243 27.9946 38.4231 27.0894C38.6032 26.1841 39.0476 25.3526 39.7003 24.7C40.3529 24.0474 41.1844 23.6029 42.0897 23.4228C42.9949 23.2428 43.9332 23.3352 44.7859 23.6884C45.6386 24.0416 46.3675 24.6398 46.8802 25.4072C47.393 26.1746 47.6667 27.0768 47.6667 27.9998C47.6667 29.2375 47.175 30.4245 46.2998 31.2996C45.4247 32.1748 44.2377 32.6665 43 32.6665Z" fill="#262626"/>
<path d="M50.4733 22.2066C51.4011 22.2066 52.1533 21.4545 52.1533 20.5267C52.1533 19.5988 51.4011 18.8467 50.4733 18.8467C49.5455 18.8467 48.7933 19.5988 48.7933 20.5267C48.7933 21.4545 49.5455 22.2066 50.4733 22.2066Z" fill="#262626"/>
<path d="M147.211 26.448C146.551 26.448 145.951 26.358 145.411 26.178C144.883 25.998 144.433 25.764 144.061 25.476C143.689 25.176 143.401 24.834 143.197 24.45C142.993 24.054 142.891 23.64 142.891 23.208V22.488C142.891 22.056 142.987 21.648 143.179 21.264C143.383 20.868 143.671 20.526 144.043 20.238C144.415 19.938 144.865 19.698 145.393 19.518C145.933 19.338 146.539 19.248 147.211 19.248C147.883 19.248 148.483 19.338 149.011 19.518C149.551 19.698 150.007 19.938 150.379 20.238C150.751 20.526 151.033 20.868 151.225 21.264C151.429 21.648 151.531 22.056 151.531 22.488V23.208C151.531 23.64 151.429 24.054 151.225 24.45C151.021 24.834 150.733 25.176 150.361 25.476C149.989 25.764 149.533 25.998 148.993 26.178C148.465 26.358 147.871 26.448 147.211 26.448ZM153.817 35.52V18.924H155.581V35.52H153.817ZM146.383 35.016V29.346C145.723 29.37 145.027 29.382 144.295 29.382C143.575 29.382 142.807 29.382 141.991 29.382V27.834C143.179 27.834 144.265 27.828 145.249 27.816C146.245 27.804 147.175 27.786 148.039 27.762C148.903 27.726 149.719 27.684 150.487 27.636C151.267 27.588 152.029 27.528 152.773 27.456L152.917 28.95C152.161 29.034 151.399 29.106 150.631 29.166C149.875 29.214 149.065 29.256 148.201 29.292V35.016H146.383ZM147.211 24.9C147.979 24.9 148.603 24.732 149.083 24.396C149.575 24.048 149.821 23.61 149.821 23.082V22.614C149.821 22.062 149.575 21.624 149.083 21.3C148.603 20.964 147.979 20.796 147.211 20.796C146.443 20.796 145.813 20.964 145.321 21.3C144.841 21.624 144.601 22.062 144.601 22.614V23.082C144.601 23.61 144.841 24.048 145.321 24.396C145.813 24.732 146.443 24.9 147.211 24.9ZM173.242 31.794V33.306H158.014V31.794H173.242ZM171.298 28.284H160.066V20.346H171.1V21.876H161.848V26.754H171.298V28.284ZM184.962 27.204C184.242 27.276 183.546 27.342 182.874 27.402C182.214 27.45 181.482 27.492 180.678 27.528C179.886 27.552 178.986 27.576 177.978 27.6C176.97 27.612 175.776 27.618 174.396 27.618V26.124C175.26 26.124 176.034 26.124 176.718 26.124C177.414 26.124 178.062 26.118 178.662 26.106V25.008C178.206 24.948 177.78 24.84 177.384 24.684C176.988 24.528 176.646 24.336 176.358 24.108C176.07 23.88 175.842 23.622 175.674 23.334C175.506 23.046 175.422 22.728 175.422 22.38V21.696C175.422 21.3 175.53 20.94 175.746 20.616C175.974 20.28 176.274 19.998 176.646 19.77C177.03 19.53 177.468 19.344 177.96 19.212C178.464 19.08 178.992 19.014 179.544 19.014C180.096 19.014 180.618 19.08 181.11 19.212C181.614 19.344 182.052 19.53 182.424 19.77C182.808 19.998 183.108 20.28 183.324 20.616C183.552 20.94 183.666 21.3 183.666 21.696V22.38C183.666 22.728 183.582 23.046 183.414 23.334C183.246 23.622 183.012 23.88 182.712 24.108C182.424 24.336 182.082 24.528 181.686 24.684C181.29 24.84 180.87 24.948 180.426 25.008V26.052C181.194 26.028 181.92 25.992 182.604 25.944C183.288 25.896 184.026 25.836 184.818 25.764L184.962 27.204ZM176.826 35.628V31.434H185.862V30.246H176.736V28.77H187.608V32.874H178.5V34.152H188.094V35.628H176.826ZM185.844 28.158V18.924H187.608V22.506H189.948V24.054H187.608V28.158H185.844ZM179.544 20.508C178.824 20.508 178.242 20.628 177.798 20.868C177.354 21.096 177.132 21.42 177.132 21.84V22.236C177.132 22.656 177.354 22.986 177.798 23.226C178.242 23.454 178.824 23.568 179.544 23.568C180.264 23.568 180.846 23.454 181.29 23.226C181.734 22.986 181.956 22.656 181.956 22.236V21.84C181.956 21.42 181.734 21.096 181.29 20.868C180.846 20.628 180.264 20.508 179.544 20.508ZM201.345 27.204C200.625 27.276 199.929 27.342 199.257 27.402C198.597 27.45 197.865 27.492 197.061 27.528C196.269 27.552 195.369 27.576 194.361 27.6C193.353 27.612 192.159 27.618 190.779 27.618V26.124C191.643 26.124 192.417 26.124 193.101 26.124C193.797 26.124 194.445 26.118 195.045 26.106V25.008C194.589 24.948 194.163 24.84 193.767 24.684C193.371 24.528 193.029 24.336 192.741 24.108C192.453 23.88 192.225 23.622 192.057 23.334C191.889 23.046 191.805 22.728 191.805 22.38V21.696C191.805 21.3 191.913 20.94 192.129 20.616C192.357 20.28 192.657 19.998 193.029 19.77C193.413 19.53 193.851 19.344 194.343 19.212C194.847 19.08 195.375 19.014 195.927 19.014C196.479 19.014 197.001 19.08 197.493 19.212C197.997 19.344 198.435 19.53 198.807 19.77C199.191 19.998 199.491 20.28 199.707 20.616C199.935 20.94 200.049 21.3 200.049 21.696V22.38C200.049 22.728 199.965 23.046 199.797 23.334C199.629 23.622 199.395 23.88 199.095 24.108C198.807 24.336 198.465 24.528 198.069 24.684C197.673 24.84 197.253 24.948 196.809 25.008V26.052C197.577 26.028 198.303 25.992 198.987 25.944C199.671 25.896 200.409 25.836 201.201 25.764L201.345 27.204ZM193.209 35.628V31.434H202.245V30.246H193.119V28.77H203.991V32.874H194.883V34.152H204.477V35.628H193.209ZM202.227 28.158V18.924H203.991V22.506H206.331V24.054H203.991V28.158H202.227ZM195.927 20.508C195.207 20.508 194.625 20.628 194.181 20.868C193.737 21.096 193.515 21.42 193.515 21.84V22.236C193.515 22.656 193.737 22.986 194.181 23.226C194.625 23.454 195.207 23.568 195.927 23.568C196.647 23.568 197.229 23.454 197.673 23.226C198.117 22.986 198.339 22.656 198.339 22.236V21.84C198.339 21.42 198.117 21.096 197.673 20.868C197.229 20.628 196.647 20.508 195.927 20.508ZM216.828 33.792H225.756V35.34H215.046V29.832H216.828V33.792ZM223.65 30.768V18.924H225.414V30.768H223.65ZM218.97 23.46C218.97 23.184 218.922 22.908 218.826 22.632C218.73 22.356 218.58 22.11 218.376 21.894C218.184 21.666 217.932 21.486 217.62 21.354C217.32 21.21 216.954 21.138 216.522 21.138C216.09 21.138 215.718 21.21 215.406 21.354C215.094 21.486 214.836 21.666 214.632 21.894C214.44 22.11 214.296 22.356 214.2 22.632C214.116 22.908 214.074 23.184 214.074 23.46V24.252C214.074 24.528 214.122 24.804 214.218 25.08C214.314 25.356 214.458 25.608 214.65 25.836C214.854 26.052 215.106 26.232 215.406 26.376C215.718 26.508 216.09 26.574 216.522 26.574C216.954 26.574 217.32 26.508 217.62 26.376C217.932 26.232 218.184 26.052 218.376 25.836C218.58 25.608 218.73 25.356 218.826 25.08C218.922 24.804 218.97 24.528 218.97 24.252V23.46ZM212.364 23.388C212.364 22.98 212.448 22.554 212.616 22.11C212.784 21.654 213.042 21.24 213.39 20.868C213.738 20.496 214.17 20.19 214.686 19.95C215.202 19.71 215.814 19.59 216.522 19.59C217.218 19.59 217.824 19.71 218.34 19.95C218.868 20.19 219.306 20.496 219.654 20.868C220.002 21.24 220.26 21.654 220.428 22.11C220.596 22.554 220.68 22.98 220.68 23.388V24.324C220.68 24.732 220.596 25.164 220.428 25.62C220.26 26.064 220.002 26.472 219.654 26.844C219.306 27.216 218.868 27.522 218.34 27.762C217.824 28.002 217.218 28.122 216.522 28.122C215.814 28.122 215.202 28.002 214.686 27.762C214.17 27.522 213.738 27.216 213.39 26.844C213.042 26.472 212.784 26.064 212.616 25.62C212.448 25.164 212.364 24.732 212.364 24.324V23.388ZM243.273 31.794V33.306H228.045V31.794H243.273ZM235.659 25.206C235.563 25.41 235.335 25.668 234.975 25.98C234.627 26.292 234.147 26.64 233.535 27.024C233.007 27.36 232.449 27.708 231.861 28.068C231.273 28.416 230.601 28.8 229.845 29.22L228.963 27.816C229.683 27.42 230.343 27.048 230.943 26.7C231.543 26.352 232.143 25.974 232.743 25.566C233.151 25.29 233.487 25.026 233.751 24.774C234.015 24.522 234.219 24.258 234.363 23.982C234.519 23.706 234.621 23.406 234.669 23.082C234.729 22.746 234.759 22.356 234.759 21.912V20.094H236.559V21.912C236.559 22.356 236.583 22.746 236.631 23.082C236.679 23.406 236.781 23.712 236.937 24C237.093 24.276 237.315 24.546 237.603 24.81C237.891 25.074 238.281 25.368 238.773 25.692C239.337 26.064 239.901 26.412 240.465 26.736C241.029 27.06 241.665 27.414 242.373 27.798L241.509 29.184C240.837 28.8 240.183 28.428 239.547 28.068C238.911 27.696 238.323 27.336 237.783 26.988C237.195 26.616 236.721 26.28 236.361 25.98C236.001 25.668 235.773 25.41 235.677 25.206H235.659ZM247.11 21.786V24.936H252.582V26.448H247.11V29.814H248.676C249.276 29.814 249.822 29.808 250.314 29.796C250.806 29.784 251.268 29.766 251.7 29.742C252.144 29.706 252.576 29.67 252.996 29.634C253.428 29.586 253.878 29.526 254.346 29.454L254.544 30.966C254.124 31.026 253.698 31.08 253.266 31.128C252.846 31.176 252.384 31.218 251.88 31.254C251.388 31.278 250.842 31.302 250.242 31.326C249.654 31.338 248.988 31.344 248.244 31.344H245.346V20.256H252.942V21.786H247.11ZM259.998 26.538H257.442V35.52H255.66V18.924H257.442V24.99H259.998V26.538ZM276.038 31.794V33.306H260.81V31.794H276.038ZM273.698 20.49V22.938C273.698 23.742 273.68 24.48 273.644 25.152C273.62 25.812 273.578 26.442 273.518 27.042C273.47 27.63 273.404 28.2 273.32 28.752C273.248 29.304 273.158 29.862 273.05 30.426L271.268 30.21C271.496 29.034 271.658 27.918 271.754 26.862C271.862 25.794 271.916 24.696 271.916 23.568V22.038H262.682V20.49H273.698ZM291.305 29.526V35.502H280.901V29.526H291.305ZM289.595 18.924H291.305V28.662H289.595V24.45H287.921V28.626H286.229V19.14H287.921V22.92H289.595V18.924ZM277.931 28.014V23.172H282.431V21.282H277.877V19.824H284.123V24.594H279.623V26.556H280.487C281.231 26.556 281.987 26.532 282.755 26.484C283.523 26.436 284.291 26.358 285.059 26.25L285.239 27.672C284.579 27.768 283.811 27.852 282.935 27.924C282.071 27.984 281.075 28.014 279.947 28.014H277.931ZM282.665 33.99H289.541V31.038H282.665V33.99Z" fill="#262626"/>
</g>
<defs>
<filter id="filter0_d_62_204" x="0" y="0" width="328" height="64" filterUnits="userSpaceOnUse" color-interpolation-filters="sRGB">
<feFlood flood-opacity="0" result="BackgroundImageFix"/>
<feColorMatrix in="SourceAlpha" type="matrix" values="0 0 0 0 0 0 0 0 0 0 0 0 0 0 0 0 0 0 127 0" result="hardAlpha"/>
<feOffset dx="3" dy="4"/>
<feGaussianBlur stdDeviation="2"/>
<feComposite in2="hardAlpha" operator="out"/>
<feColorMatrix type="matrix" values="0 0 0 0 0 0 0 0 0 0 0 0 0 0 0 0 0 0 0.05 0"/>
<feBlend mode="normal" in2="BackgroundImageFix" result="effect1_dropShadow_62_204"/>
<feBlend mode="normal" in="SourceGraphic" in2="effect1_dropShadow_62_204" result="shape"/>
</filter>
</defs>
</svg>
